<?xml version="1.0" encoding="UTF-8"?>
<svg version="1.1" xmlns="http://www.w3.org/2000/svg" width="3840" height="3840">
<path d="M0 0 C1.8436336 -0.00111869 3.68726698 -0.00267507 5.53089988 -0.0046259 C10.59791445 -0.00872045 15.66491023 -0.00660753 20.73192479 -0.00348004 C26.26471249 -0.00117385 31.79749707 -0.00468633 37.33028415 -0.00744686 C47.06484095 -0.01149978 56.7993924 -0.01182685 66.53394974 -0.00974091 C77.03284194 -0.00750352 87.53173099 -0.00741098 98.03062313 -0.00997362 C98.69676548 -0.01013482 99.36290782 -0.01029601 100.0492363 -0.01046209 C103.45059257 -0.01129463 106.85194884 -0.01216148 110.2533051 -0.01303962 C135.08935076 -0.0193742 159.92539483 -0.02075229 184.76144117 -0.01962215 C209.93608049 -0.0184902 235.11071833 -0.0195219 260.28535742 -0.02319461 C261.89049792 -0.0234266 263.49563843 -0.02365858 265.10077893 -0.02389053 C271.57273031 -0.02483007 278.04468168 -0.02578636 284.51663306 -0.02676172 C302.76054914 -0.02950711 321.00446527 -0.03188651 339.24838144 -0.03401369 C340.08441334 -0.03411124 340.92044525 -0.03420879 341.78181145 -0.03430929 C389.33353782 -0.0398151 436.88526427 -0.04011891 484.4369909 -0.04053015 C491.70611761 -0.0405934 498.97524432 -0.04065993 506.24437103 -0.04073071 C508.06631733 -0.0407484 509.88826363 -0.04076577 511.71020993 -0.04078283 C552.59637694 -0.04117058 593.48254377 -0.04334903 634.36871068 -0.04591308 C643.49317254 -0.04648464 652.6176344 -0.04703862 661.74209626 -0.04759372 C663.10068041 -0.0476764 663.10068041 -0.0476764 664.48671071 -0.04776075 C669.98461171 -0.04809525 675.48251272 -0.04842902 680.98041373 -0.04876231 C683.73456521 -0.0489294 686.4887167 -0.0490969 689.24286818 -0.04926445 C732.06546636 -0.05186636 774.88806456 -0.05409665 817.71066278 -0.05594665 C819.11024348 -0.0560072 819.11024348 -0.0560072 820.53809854 -0.05606898 C879.99779119 -0.0586322 939.45748375 -0.05953147 998.91717646 -0.05926865 C1001.84109471 -0.05925589 1004.76501296 -0.05924393 1007.68893121 -0.05923224 C1028.23072296 -0.0591499 1048.7725147 -0.05904719 1069.31430644 -0.05893936 C1075.20410105 -0.05890859 1081.09389565 -0.05887852 1086.98369025 -0.05884854 C1091.89654804 -0.05882345 1096.80940583 -0.05879766 1101.72226361 -0.05877043 C1194.51504099 -0.058259 1287.3078175 -0.059677 1380.10059446 -0.06911784 C1381.07752836 -0.0692172 1382.05446226 -0.06931656 1383.06100021 -0.06941893 C1413.58512361 -0.07253029 1444.10924698 -0.07589678 1474.63337034 -0.07931072 C1505.95353565 -0.08281214 1537.27370096 -0.0862826 1568.59386629 -0.08957511 C1570.0404176 -0.0897274 1570.0404176 -0.0897274 1571.51619217 -0.08988277 C1631.91196356 -0.09623192 1692.3077347 -0.10015379 1752.70350641 -0.1014331 C1754.1026947 -0.10146314 1754.1026947 -0.10146314 1755.53014943 -0.10149379 C1796.49601621 -0.10236911 1837.46188298 -0.10268888 1878.42774977 -0.1024029 C1894.90832774 -0.10228862 1911.38890572 -0.10223255 1927.86948369 -0.10219958 C1930.60203592 -0.10219318 1933.33458815 -0.1021841 1936.06714038 -0.10217443 C1977.86310037 -0.10203794 2019.65905956 -0.10338368 2061.45501918 -0.10921961 C2062.35632367 -0.10934528 2063.25762816 -0.10947095 2064.18624491 -0.10960043 C2078.68474614 -0.11162945 2093.18324735 -0.11377347 2107.68174857 -0.11592724 C2148.84185847 -0.12203663 2190.00196731 -0.12707983 2231.16207772 -0.12495607 C2231.99733672 -0.12491336 2232.83259571 -0.12487064 2233.69316559 -0.12482664 C2251.91629356 -0.12387325 2270.13942144 -0.1223574 2288.36254932 -0.12028992 C2295.63055164 -0.11947361 2302.89855397 -0.11872998 2310.1665563 -0.11800891 C2311.35577447 -0.11788793 2311.35577447 -0.11788793 2312.56901725 -0.11776451 C2337.70815185 -0.11524147 2362.84728053 -0.11885664 2387.9864141 -0.12602673 C2412.74430217 -0.13306205 2437.50218199 -0.1340153 2462.26007007 -0.12613979 C2465.6534783 -0.1250612 2469.04688654 -0.12405232 2472.44029479 -0.12308524 C2473.43675661 -0.12279721 2473.43675661 -0.12279721 2474.45334897 -0.12250337 C2485.54588778 -0.11948969 2496.63841176 -0.12433453 2507.73094811 -0.13135475 C2517.34061498 -0.13689096 2526.9502629 -0.13518649 2536.55992831 -0.12757196 C2542.00902236 -0.12345735 2547.45806643 -0.12242923 2552.90715745 -0.13032265 C2557.86029698 -0.1374389 2562.81334458 -0.13519797 2567.76647949 -0.12578896 C2569.53403028 -0.12401277 2571.30158859 -0.12550196 2573.0691321 -0.13087509 C2582.18841312 -0.15670403 2591.1986858 0.12809389 2600.2798658 1.00537781 C2601.07870324 1.08131334 2601.87754068 1.15724888 2602.70058532 1.23548549 C2636.42151306 4.82053514 2667.04315643 22.97007711 2688.29865354 49.10989827 C2709.14041086 76.43560793 2715.85939564 107.42579058 2715.81236041 141.23416644 C2715.81347857 143.07980316 2715.8150346 144.92543965 2715.81698631 146.77107567 C2715.82108821 151.85299579 2715.8189645 156.93489723 2715.81584044 162.01681734 C2715.81353733 167.56232623 2715.81704528 173.10783197 2715.81980726 178.65334022 C2715.82386296 188.41342438 2715.82418602 198.17350322 2715.82210132 207.93358792 C2715.81986494 218.46147076 2715.81977015 228.98935046 2715.82233403 239.51723324 C2715.82257582 240.51872484 2715.82257582 240.51872484 2715.82282249 241.54044859 C2715.82365502 244.94948227 2715.82452188 248.35851594 2715.82540003 251.76754961 C2715.83173672 276.66779895 2715.83311239 301.56804669 2715.83198255 326.46829671 C2715.83085082 351.70988841 2715.83188155 376.95147864 2715.83555502 402.19307011 C2715.83578701 403.80215375 2715.83601898 405.41123739 2715.83625094 407.02032103 C2715.83719047 413.50811099 2715.83814676 419.99590094 2715.83912213 426.48369089 C2715.8418676 444.77265823 2715.84424697 463.06162561 2715.84637409 481.35059303 C2715.84647164 482.18871021 2715.84656919 483.02682738 2715.8466697 483.89034205 C2715.85217621 531.56684462 2715.85247934 579.24334728 2715.85289056 626.91985011 C2715.85295381 634.20834421 2715.85302033 641.49683831 2715.85309111 648.78533242 C2715.85310881 650.61211931 2715.85312618 652.4389062 2715.85314324 654.2656931 C2715.85353094 695.25581424 2715.85570923 736.2459352 2715.85827349 777.23605625 C2715.85884505 786.38296939 2715.85939902 795.52988252 2715.85995412 804.67679565 C2715.86000924 805.58474367 2715.86006437 806.49269168 2715.86012116 807.42815326 C2715.86045566 812.93954739 2715.86078943 818.45094151 2715.86112272 823.96233563 C2715.8612898 826.72323552 2715.86145731 829.48413541 2715.86162486 832.2450353 C2715.86422679 875.1729326 2715.86645707 918.1008299 2715.86830705 961.02872723 C2715.86834742 961.96408374 2715.86838779 962.89944025 2715.86842939 963.86314089 C2715.87099269 1023.47158693 2715.87189187 1083.08003288 2715.87162906 1142.68847897 C2715.8716163 1145.61981962 2715.87160434 1148.55116026 2715.87159264 1151.4825009 C2715.8715103 1172.07657001 2715.87140759 1192.67063913 2715.87129976 1213.26470824 C2715.871269 1219.16952662 2715.87123893 1225.07434501 2715.87120895 1230.97916339 C2715.87118386 1235.90455383 2715.87115807 1240.82994428 2715.87113084 1245.75533473 C2715.8706194 1338.78664963 2715.8720376 1431.81796366 2715.88147825 1524.84927815 C2715.88162729 1526.31847721 2715.88162729 1526.31847721 2715.88177934 1527.81735707 C2715.88489069 1558.42056744 2715.88825718 1589.02377778 2715.89167112 1619.62698811 C2715.89517252 1651.02811433 2715.89864298 1682.42924055 2715.90193552 1713.83036679 C2715.90203704 1714.79721786 2715.90213857 1715.76406894 2715.90224317 1716.76021853 C2715.90859196 1777.30798353 2715.91251412 1837.85574829 2715.9137935 1898.40351361 C2715.91381353 1899.33860147 2715.91383356 1900.27368932 2715.91385419 1901.23711318 C2715.9147295 1942.30309419 2715.91504929 1983.3690752 2715.91476331 2024.43505623 C2715.91464903 2040.95574169 2715.91459296 2057.47642714 2715.91455999 2073.9971126 C2715.91455359 2076.73633142 2715.91454451 2079.47555023 2715.91453484 2082.21476905 C2715.91439833 2124.11731394 2715.91574496 2166.01985804 2715.92158002 2207.92240256 C2715.92176852 2209.27801108 2715.92176852 2209.27801108 2715.92196084 2210.66100564 C2715.92398988 2225.19888386 2715.9261339 2239.73676207 2715.92828765 2254.27464027 C2715.93439639 2295.54258296 2715.93944062 2336.81052458 2715.93731648 2378.07846779 C2715.93727376 2378.91576334 2715.93723105 2379.75305888 2715.93718704 2380.61572703 C2715.9362337 2398.88246839 2715.9347179 2417.14920966 2715.93265033 2435.41595093 C2715.931834 2442.70114167 2715.93109038 2449.98633242 2715.93036932 2457.27152318 C2715.93028867 2458.0662147 2715.93020801 2458.86090622 2715.93012492 2459.6796793 C2715.92760106 2484.88656661 2715.93121898 2510.09344801 2715.93838714 2535.30033429 C2715.94541945 2560.12098171 2715.94637952 2584.94162091 2715.9385002 2609.76226834 C2715.93742158 2613.16272867 2715.9364127 2616.56318901 2715.93544564 2619.96364938 C2715.93525363 2620.62934931 2715.93506161 2621.29504925 2715.93486378 2621.98092191 C2715.93184763 2633.10611903 2715.93669887 2644.23130139 2715.94371515 2655.35649605 C2715.94924542 2664.98866112 2715.94755456 2674.62080726 2715.93993237 2684.25297087 C2715.93581196 2689.71732118 2715.93480498 2695.1816216 2715.94268306 2700.64596891 C2715.94978049 2705.60940496 2715.94758127 2710.57274907 2715.93814937 2715.53618045 C2715.93636786 2717.31081572 2715.9378793 2719.08545845 2715.9432355 2720.86008654 C2716.04263455 2756.19530899 2707.41766971 2787.62101078 2684.68586057 2815.12649983 C2684.05679807 2815.89735921 2683.42773557 2816.66821858 2682.77961057 2817.46243733 C2678.80677404 2822.17566613 2674.47083101 2826.24746184 2669.68586057 2830.12649983 C2668.82347776 2830.82646077 2667.96109495 2831.52642171 2667.07257932 2832.24759358 C2639.65466821 2853.65508305 2608.74175827 2860.30052904 2574.57819396 2860.25299966 C2572.73255725 2860.25411783 2570.88692076 2860.25567385 2569.04128473 2860.25762557 C2563.95936461 2860.26172747 2558.87746318 2860.25960376 2553.79554306 2860.2564797 C2548.25003418 2860.25417658 2542.70452844 2860.25768454 2537.15902019 2860.26044652 C2527.39893602 2860.26450222 2517.63885718 2860.26482528 2507.87877248 2860.26274057 C2497.35088964 2860.2605042 2486.82300995 2860.2604094 2476.29512717 2860.26297329 C2475.29363557 2860.26321508 2475.29363557 2860.26321508 2474.27191182 2860.26346175 C2470.86287813 2860.26429427 2467.45384446 2860.26516113 2464.04481079 2860.26603928 C2439.14456146 2860.27237597 2414.24431371 2860.27375165 2389.3440637 2860.27262181 C2364.102472 2860.27149008 2338.86088177 2860.27252081 2313.61929029 2860.27619427 C2312.01020665 2860.27642627 2310.40112302 2860.27665824 2308.79203938 2860.27689019 C2302.30424942 2860.27782972 2295.81645947 2860.27878602 2289.32866952 2860.27976138 C2271.03970218 2860.28250686 2252.7507348 2860.28488623 2234.46176738 2860.28701335 C2233.20459161 2860.28715968 2233.20459161 2860.28715968 2231.92201836 2860.28730896 C2184.24551579 2860.29281547 2136.56901313 2860.29311859 2088.89251029 2860.29352982 C2081.60401619 2860.29359306 2074.31552209 2860.29365959 2067.02702799 2860.29373037 C2065.2002411 2860.29374806 2063.3734542 2860.29376544 2061.54666731 2860.29378249 C2020.55654617 2860.2941702 1979.5664252 2860.29634849 1938.57630415 2860.29891275 C1929.42939102 2860.29948431 1920.28247789 2860.30003828 1911.13556475 2860.30059338 C1910.22761674 2860.3006485 1909.31966873 2860.30070362 1908.38420714 2860.30076041 C1902.87281302 2860.30109492 1897.3614189 2860.30142868 1891.85002477 2860.30176198 C1889.08912488 2860.30192906 1886.32822499 2860.30209657 1883.5673251 2860.30226412 C1840.63942781 2860.30486605 1797.7115305 2860.30709633 1754.78363317 2860.30894631 C1753.84827667 2860.30898668 1752.91292016 2860.30902705 1751.94921952 2860.30906865 C1692.34077347 2860.31163195 1632.73232753 2860.31253113 1573.12388143 2860.31226831 C1570.19254079 2860.31225556 1567.26120015 2860.3122436 1564.32985951 2860.3122319 C1543.73579039 2860.31214956 1523.14172128 2860.31204685 1502.54765216 2860.31193902 C1496.64283378 2860.31190825 1490.7380154 2860.31187819 1484.83319702 2860.31184821 C1479.90780657 2860.31182311 1474.98241613 2860.31179732 1470.05702568 2860.3117701 C1377.02571078 2860.31125866 1283.99439674 2860.31267686 1190.96308225 2860.32211751 C1189.98361621 2860.32221687 1189.00415017 2860.32231622 1187.99500334 2860.32241859 C1157.39179297 2860.32552995 1126.78858263 2860.32889644 1096.18537229 2860.33231038 C1064.78424608 2860.33581178 1033.38311986 2860.33928223 1001.98199362 2860.34257478 C1001.01514254 2860.3426763 1000.04829147 2860.34277783 999.05214188 2860.34288243 C938.50437687 2860.34923122 877.95661212 2860.35315338 817.4088468 2860.35443276 C816.47375894 2860.35445279 815.53867108 2860.35447282 814.57524723 2860.35449345 C773.50926621 2860.35536876 732.44328521 2860.35568855 691.37730418 2860.35540257 C674.85661872 2860.35528828 658.33593326 2860.35523222 641.8152478 2860.35519925 C639.07602899 2860.35519284 636.33681017 2860.35518377 633.59759136 2860.3551741 C591.69504647 2860.35503759 549.79250237 2860.35638422 507.88995785 2860.36221927 C506.98621883 2860.36234495 506.08247981 2860.36247062 505.15135477 2860.3626001 C490.61347654 2860.36462914 476.07559834 2860.36677315 461.53772013 2860.36892691 C420.26977745 2860.37503565 379.00183582 2860.38007988 337.73389262 2860.37795573 C336.4779493 2860.37789166 336.4779493 2860.37789166 335.19663338 2860.3778263 C316.92989202 2860.37687296 298.66315075 2860.37535715 280.39640948 2860.37328959 C273.11121873 2860.37247326 265.82602798 2860.37172963 258.54083723 2860.37100857 C257.74614571 2860.37092792 256.95145419 2860.37084727 256.1326811 2860.37076418 C230.92579379 2860.36824032 205.71891239 2860.37185824 180.51202611 2860.37902639 C155.69137869 2860.38605871 130.8707395 2860.38701878 106.05009207 2860.37913946 C102.64963174 2860.37806083 99.24917139 2860.37705196 95.84871103 2860.3760849 C95.18301109 2860.37589288 94.51731116 2860.37570087 93.8314385 2860.37550303 C82.70624137 2860.37248688 71.58105902 2860.37733812 60.45586435 2860.38435441 C50.82369928 2860.38988468 41.19155314 2860.38819382 31.55938954 2860.38057163 C26.09503923 2860.37645122 20.63073881 2860.37544424 15.1663915 2860.38332232 C10.20295545 2860.39041975 5.23961133 2860.38822053 0.27617996 2860.37878863 C-1.49845532 2860.37700712 -3.27309804 2860.37851856 -5.04772613 2860.38387476 C-44.51571137 2860.49489939 -78.88406405 2849.38961981 -107.43913943 2821.50149983 C-135.65603241 2793.12047725 -144.49500487 2756.8929997 -144.44063926 2717.90860945 C-144.44175769 2716.06321011 -144.44331389 2714.21781099 -144.44526516 2712.37241234 C-144.4493634 2707.29582007 -144.44724506 2702.21924653 -144.44411929 2697.14265427 C-144.44181465 2691.60119613 -144.44532486 2686.05974112 -144.44808611 2680.51828361 C-144.45214043 2670.76689314 -144.45246549 2661.015508 -144.45038017 2651.26411699 C-144.44814329 2640.74634039 -144.44804961 2630.22856695 -144.45061288 2619.71079041 C-144.45077407 2619.04361126 -144.45093527 2618.3764321 -144.45110135 2617.6890354 C-144.45193388 2614.28242422 -144.45280073 2610.87581305 -144.45367888 2607.46920188 C-144.46001452 2582.59070313 -144.46139139 2557.71220598 -144.4602614 2532.83370656 C-144.45912957 2507.61510985 -144.46016078 2482.39651461 -144.46383387 2457.17791814 C-144.46406586 2455.57013921 -144.46429783 2453.96236029 -144.46452979 2452.35458137 C-144.46546932 2445.87202324 -144.46642562 2439.3894651 -144.46740098 2432.90690697 C-144.47014641 2414.63290018 -144.4725258 2396.35889336 -144.47465295 2378.08488649 C-144.4747505 2377.24746565 -144.47484805 2376.41004482 -144.47494855 2375.54724759 C-144.48045471 2327.91348356 -144.48075818 2280.27971944 -144.48116941 2232.64595514 C-144.48123266 2225.36415534 -144.48129918 2218.08235554 -144.48136996 2210.80055574 C-144.48138766 2208.97544078 -144.48140503 2207.15032582 -144.48142209 2205.32521086 C-144.48180981 2164.37042471 -144.48398818 2123.41563873 -144.48655234 2082.46085267 C-144.4871239 2073.32148017 -144.48767787 2064.18210767 -144.48823297 2055.04273517 C-144.4882881 2054.1355343 -144.48834322 2053.22833344 -144.48840001 2052.29364165 C-144.48873451 2046.78677676 -144.48906828 2041.27991188 -144.48940157 2035.77304699 C-144.48956865 2033.01441132 -144.48973616 2030.25577566 -144.48990371 2027.49713999 C-144.49250563 1984.60466031 -144.49473591 1941.71218061 -144.49658591 1898.8197009 C-144.49662628 1897.88512084 -144.49666665 1896.95054078 -144.49670824 1895.98764011 C-144.4992715 1836.42974818 -144.50017073 1776.87185635 -144.49990791 1717.31396436 C-144.49989515 1714.38516485 -144.49988319 1711.45636533 -144.4998715 1708.52756581 C-144.49978915 1687.95140728 -144.49968644 1667.37524876 -144.49957862 1646.79909023 C-144.49954785 1640.89942236 -144.49951778 1634.99975448 -144.4994878 1629.10008661 C-144.49946271 1624.17899284 -144.49943692 1619.25789907 -144.49940969 1614.3368053 C-144.49889825 1521.38686093 -144.50031646 1428.43691743 -144.5097571 1335.48697346 C-144.50985646 1334.50836397 -144.50995582 1333.52975448 -144.51005819 1332.52149016 C-144.51316955 1301.94500248 -144.51653604 1271.36851482 -144.51994997 1240.79202718 C-144.52345138 1209.41823454 -144.52692184 1178.04444189 -144.53021437 1146.67064923 C-144.5303159 1145.70463635 -144.53041742 1144.73862346 -144.53052202 1143.74333746 C-144.53687093 1083.24691086 -144.540793 1022.75048451 -144.54207236 962.25405759 C-144.54209238 961.31974613 -144.54211241 960.38543467 -144.54213305 959.42281075 C-144.54300836 918.39070834 -144.54332814 877.35860594 -144.54304216 836.32650353 C-144.54292788 819.81940257 -144.54287181 803.31230161 -144.54283884 786.80520066 C-144.54283244 784.06824089 -144.54282336 781.33128112 -144.54281369 778.59432135 C-144.54267719 736.72794761 -144.54402351 694.86157467 -144.54985887 652.99520129 C-144.54998454 652.09228969 -144.55011021 651.18937809 -144.55023969 650.25910554 C-144.55226872 635.73461657 -144.55441274 621.21012763 -144.5565665 606.68563869 C-144.56267545 565.45444295 -144.56771935 524.22324827 -144.56559533 482.99205202 C-144.56555262 482.15545221 -144.5655099 481.3188524 -144.56546589 480.45690108 C-144.56451254 462.20507206 -144.56299672 443.95324312 -144.56092918 425.7014142 C-144.56011286 418.42210544 -144.55936923 411.14279667 -144.55864817 403.8634879 C-144.55856752 403.06943957 -144.55848687 402.27539125 -144.55840377 401.45728085 C-144.55588018 376.27351469 -144.55949719 351.08975444 -144.56666599 325.90598931 C-144.5736993 301.10680054 -144.5746571 276.30762001 -144.56677905 251.50843122 C-144.56570044 248.11039627 -144.56469156 244.71236129 -144.5637245 241.3143263 C-144.56353248 240.64910504 -144.56334046 239.98388378 -144.56314263 239.29850429 C-144.5601273 228.18444144 -144.56497641 217.07039337 -144.571994 205.95633298 C-144.57752625 196.33188408 -144.57583086 186.70745412 -144.56821122 177.08300668 C-144.56409274 171.62386597 -144.56307873 166.16477519 -144.57096191 160.70563749 C-144.5780656 155.74574647 -144.57585249 150.78594739 -144.56642822 145.82606103 C-144.56464848 144.05382815 -144.56615253 142.2815878 -144.57151435 140.50936214 C-144.61294673 125.81445024 -144.15109526 110.79261312 -140.12663943 96.56399983 C-139.80517946 95.39659261 -139.80517946 95.39659261 -139.47722536 94.20560139 C-129.87656945 60.67799255 -107.8312889 32.94036716 -77.38054568 15.88431233 C-52.90549607 2.74306067 -27.36116423 -0.03828033 0 0 Z " fill="#7F7E7E" transform="translate(634.3141394257545,489.8735001683235)"/>
<path d="M0 0 C2.55832385 -0.0039724 5.11664546 -0.00969706 7.67496197 -0.01699778 C13.23179218 -0.03004288 18.78846388 -0.02842475 24.34529532 -0.01695231 C32.68807771 0.0001867 41.03073586 -0.00610724 49.37352339 -0.01668044 C63.66063215 -0.03411329 77.94768296 -0.03261869 92.23479497 -0.02085119 C106.78628493 -0.00894639 121.337738 -0.00588242 135.88923132 -0.01334804 C136.81281404 -0.0138164 137.73639676 -0.01428476 138.68796683 -0.01476732 C143.40389624 -0.01719744 148.11982557 -0.01976636 152.83575488 -0.02238176 C187.26239426 -0.04116931 221.6890115 -0.0402048 256.11565304 -0.02925825 C291.00946433 -0.01822292 325.90326019 -0.01589518 360.79707241 -0.02420759 C362.44781854 -0.02459468 362.44781854 -0.02459468 364.13191308 -0.02498958 C374.2172825 -0.02735573 384.30265191 -0.02981134 394.38802129 -0.03237442 C419.67828303 -0.03879125 444.96854496 -0.04381515 470.25880718 -0.04789591 C471.41771016 -0.04808351 472.57661313 -0.04827112 473.77063438 -0.04846441 C530.90286748 -0.0575803 588.03509782 -0.05143454 645.16733074 -0.04378462 C647.67013786 -0.04345007 650.17294498 -0.04311555 652.6757521 -0.04278104 C654.53635014 -0.0425323 654.53635014 -0.0425323 656.43453603 -0.04227854 C672.7920097 -0.04009249 689.14948337 -0.03794605 705.50695705 -0.03590536 C707.38246146 -0.0356704 707.38246146 -0.0356704 709.29585485 -0.03543068 C767.22521245 -0.02822723 825.15456866 -0.02993912 883.08392646 -0.03362719 C889.40266866 -0.03402638 895.72141086 -0.03440837 902.04015306 -0.03479229 C921.08538298 -0.03595464 940.13061289 -0.0371424 959.1758428 -0.03838268 C1017.25354638 -0.04216089 1075.33124998 -0.04456179 1133.40895367 -0.04577589 C1134.70212567 -0.04580336 1135.99529767 -0.04583084 1137.3276567 -0.04585914 C1221.08297699 -0.04761424 1304.83829572 -0.04321035 1388.59361553 -0.03437757 C1389.9308013 -0.0342371 1391.26798707 -0.03409663 1392.64569361 -0.0339519 C1437.43552708 -0.02924643 1482.22536052 -0.02422219 1527.01519395 -0.01916538 C1662.46313413 -0.00388354 1797.91106878 0.00449092 2039.80285117 -0.0196267 C2084.58134202 -0.0246795 2129.35983289 -0.02967354 2174.13832378 -0.03437757 C2175.47513251 -0.03451855 2176.81194125 -0.03465953 2178.18925933 -0.03480478 C2261.90050164 -0.04362537 2345.61174288 -0.04755436 2429.32298565 -0.04577589 C2431.26210157 -0.04573535 2431.26210157 -0.04573535 2433.24039155 -0.045694 C2491.2857912 -0.04446714 2549.33119075 -0.04191398 2607.37659029 -0.03813388 C2626.41344635 -0.03689567 2645.45030241 -0.03571833 2664.48715848 -0.03456168 C2670.80225696 -0.03417771 2677.11735545 -0.0337883 2683.43245394 -0.03338625 C2741.36329741 -0.02970936 2799.29413902 -0.0286477 2857.22498226 -0.03590536 C2858.47452662 -0.03606125 2859.72407099 -0.03621714 2861.01148033 -0.03637775 C2877.35971597 -0.03842495 2893.70795159 -0.04059551 2910.05618722 -0.04278104 C2911.29560848 -0.04294669 2912.53502975 -0.04311234 2913.81200923 -0.04328302 C2916.3125461 -0.04361726 2918.81308298 -0.04395179 2921.31361985 -0.04428661 C2978.36679167 -0.05190602 3035.41996021 -0.05713179 3092.47313213 -0.04789591 C3094.20920018 -0.04761578 3094.20920018 -0.04761578 3095.98034031 -0.04733 C3121.22905866 -0.04320962 3146.47777664 -0.03793146 3171.72649451 -0.03151478 C3181.79595195 -0.02897117 3191.86540942 -0.02656878 3201.93486691 -0.02420759 C3203.03327818 -0.02394593 3204.13168945 -0.02368426 3205.26338592 -0.02341467 C3240.11323582 -0.01517826 3274.9630698 -0.01919356 3309.81291852 -0.03027468 C3344.12399715 -0.04113018 3378.4350508 -0.03982977 3412.74612665 -0.02080121 C3417.44498703 -0.01819665 3422.14384749 -0.01573089 3426.84270799 -0.01334804 C3427.76260507 -0.01287609 3428.68250216 -0.01240414 3429.63027491 -0.01191789 C3444.13575426 -0.00483859 3458.64119538 -0.01108611 3473.14667025 -0.02303346 C3487.33813434 -0.03444838 3501.52953633 -0.03167173 3515.72099429 -0.01368624 C3523.99805525 -0.00361925 3532.27494034 -0.00433429 3540.55199081 -0.02142281 C3546.6887848 -0.03286804 3552.82538174 -0.02336614 3558.96215768 -0.00585348 C3561.41828533 -0.00203976 3563.87443504 -0.00485415 3566.33054349 -0.01528949 C3604.71292626 -0.16705828 3636.23081485 11.04447915 3664.36596966 37.50139666 C3664.95636028 38.02733416 3665.54675091 38.55327166 3666.15503216 39.09514666 C3679.91244703 51.87454625 3689.77062161 70.02848769 3695.80346966 87.62639666 C3696.02623577 88.26875261 3696.24900188 88.91110857 3696.47851849 89.57292986 C3701.61385137 105.77445986 3701.79572436 121.94684004 3701.74316782 138.76283151 C3701.74627153 141.31728104 3701.75068934 143.87172925 3701.75629261 146.42617452 C3701.76636628 151.98381748 3701.7653974 157.54137198 3701.75708338 163.09901659 C3701.74466448 171.44308324 3701.74976729 179.78707904 3701.75811247 188.13114754 C3701.77189598 202.41929882 3701.77145659 216.70741824 3701.76333433 230.99557243 C3701.75511987 245.55104211 3701.75351763 260.10649076 3701.75981546 274.66196164 C3701.76040852 276.04700727 3701.76040852 276.04700727 3701.76101356 277.46003363 C3701.76306114 282.17473333 3701.76521246 286.88943297 3701.76739832 291.60413261 C3701.78313078 326.03391277 3701.78402083 360.46368118 3701.77741909 394.89346361 C3701.77077068 429.7933709 3701.77063612 464.69326922 3701.77846622 499.59317636 C3701.77870999 500.69363091 3701.77895375 501.79408546 3701.77920491 502.92788712 C3701.78143929 513.01278353 3701.78373878 523.09767994 3701.78611675 533.18257632 C3701.79207068 558.47232934 3701.79696198 583.76208252 3701.80112946 609.05183589 C3701.80141649 610.79020722 3701.80141649 610.79020722 3701.80170932 612.56369715 C3701.81104066 669.70432084 3701.80886142 726.84494345 3701.80542088 783.98556757 C3701.80534642 785.22419858 3701.80527197 786.46282958 3701.80519526 787.73899486 C3701.80489342 792.75359358 3701.80459073 797.76819231 3701.80428732 802.78279103 C3701.80345049 816.63459476 3701.80264456 830.4863985 3701.80187774 844.33820224 C3701.80180786 845.58879881 3701.80173798 846.83939539 3701.80166599 848.12788882 C3701.79846097 906.06344942 3701.8016031 963.9990091 3701.80606553 1021.93456955 C3701.80654937 1028.25357078 3701.80701938 1034.57257201 3701.80748966 1040.89157324 C3701.8082456 1051.03379678 3701.80900384 1061.17602032 3701.80976658 1071.31824386 C3701.80990841 1073.20474308 3701.80990841 1073.20474308 3701.8100531 1075.1293534 C3701.81053181 1081.48915996 3701.81101325 1087.84896652 3701.81149921 1094.20877307 C3701.81603371 1153.56283576 3701.81953206 1212.91689848 3701.82200241 1272.27096128 C3701.82205652 1273.56421319 3701.82211063 1274.85746509 3701.82216637 1276.18990644 C3701.82564918 1359.95415405 3701.82429234 1443.71840084 3701.8196125 1527.48264837 C3701.81946261 1530.18484738 3701.81931281 1532.88704638 3701.81916309 1535.58924539 C3701.81750649 1565.42134343 3701.81575484 1595.25344146 3701.81397008 1625.0855395 C3701.81388958 1626.43213342 3701.81380908 1627.77872733 3701.81372614 1629.16612713 C3701.81348208 1633.24841633 3701.81323789 1637.33070553 3701.81299363 1641.41299474 C3701.812913 1642.76068085 3701.81283236 1644.10836697 3701.81274929 1645.49689207 C3701.8123416 1652.30645761 3701.81193251 1659.11602315 3701.81152094 1665.92558869 C3701.80334159 1801.39081404 3701.8014708 1936.85603487 3701.83196225 2178.77318587 C3701.83810147 2223.55489531 3701.84418386 2268.33660477 3701.84993172 2313.11831427 C3701.85018974 2315.12366703 3701.85018974 2315.12366703 3701.85045298 2317.16953197 C3701.86121174 2400.88683891 3701.86709864 2484.60414497 3701.86748886 2568.32145262 C3701.86749538 2569.61429718 3701.86750189 2570.90714175 3701.8675086 2572.23916343 C3701.8677901 2630.2892331 3701.86679904 2688.3393027 3701.86461854 2746.38937234 C3701.86385905 2766.69244215 3701.86318508 2786.99551196 3701.86253839 2807.29858178 C3701.86237716 2812.34963098 3701.86220905 2817.40068017 3701.86203537 2822.45172937 C3701.86006039 2880.38835867 3701.86087689 2938.32498589 3701.87034011 2996.26161456 C3701.87054372 2997.51130211 3701.87074734 2998.76098965 3701.87095713 3000.04854652 C3701.87424473 3020.15163209 3701.87773889 3040.25471764 3701.88123836 3060.35780318 C3701.89115626 3117.41819891 3701.89881424 3174.47859146 3701.89207184 3231.53898799 C3701.89193575 3232.69651868 3701.89179967 3233.85404936 3701.89165945 3235.04665674 C3701.88864595 3260.29874593 3701.88449111 3285.5508348 3701.87921513 3310.80292362 C3701.87712699 3320.87375364 3701.87518217 3330.9445837 3701.87328053 3341.01541376 C3701.8729633 3342.66325648 3701.8729633 3342.66325648 3701.87263967 3344.34438896 C3701.86599693 3379.19907157 3701.87162477 3414.05373767 3701.88433189 3448.90841821 C3701.89678945 3483.22434596 3701.89710499 3517.54024933 3701.87970822 3551.85617572 C3701.87732729 3556.55570814 3701.87508554 3561.25524062 3701.87292708 3565.95477315 C3701.87249908 3566.87480211 3701.87207109 3567.79483107 3701.87163013 3568.7427397 C3701.86524465 3583.25032427 3701.87219465 3597.75786993 3701.88485039 3612.26544909 C3701.89695881 3626.45899222 3701.89487558 3640.65247391 3701.8775829 3654.84601233 C3701.86792031 3663.1242997 3701.86904353 3671.40241059 3701.88654523 3679.68068611 C3701.89829663 3685.81838693 3701.88909629 3691.95589167 3701.87188352 3698.09357586 C3701.86819072 3700.55007199 3701.87112777 3703.00658984 3701.88168765 3705.46306604 C3702.03528314 3743.82165428 3690.83149908 3775.35708365 3664.36596966 3803.50139666 C3663.57706341 3804.38698259 3663.57706341 3804.38698259 3662.77221966 3805.29045916 C3649.99282006 3819.04787403 3631.83887862 3828.90604861 3614.24096966 3834.93889666 C3613.5986137 3835.16166277 3612.95625774 3835.38442888 3612.29443645 3835.61394548 C3596.09290646 3840.74927837 3579.92052628 3840.93115136 3563.1045348 3840.87859482 C3560.55008527 3840.88169853 3557.99563707 3840.88611634 3555.4411918 3840.89171961 C3549.88354883 3840.90179327 3544.32599434 3840.9008244 3538.76834973 3840.89251037 C3530.42428307 3840.88009148 3522.08028727 3840.88519429 3513.73621878 3840.89353947 C3499.4480675 3840.90732298 3485.15994808 3840.90688359 3470.87179389 3840.89876132 C3456.31632421 3840.89054687 3441.76087555 3840.88894463 3427.20540468 3840.89524246 C3425.82035904 3840.89583552 3425.82035904 3840.89583552 3424.40733268 3840.89644056 C3419.69263299 3840.89848814 3414.97793334 3840.90063946 3410.26323371 3840.90282532 C3375.83345354 3840.91855778 3341.40368514 3840.91944782 3306.9739027 3840.91284609 C3272.07399541 3840.90619768 3237.17409709 3840.90606312 3202.27418995 3840.91389322 C3200.62350813 3840.91425887 3200.62350813 3840.91425887 3198.9394792 3840.9146319 C3188.85458278 3840.91686628 3178.76968638 3840.91916578 3168.68478999 3840.92154375 C3143.39503697 3840.92749768 3118.1052838 3840.93238898 3092.81553042 3840.93655646 C3091.0771591 3840.93684349 3091.0771591 3840.93684349 3089.30366916 3840.93713632 C3032.16304547 3840.94646766 2975.02242286 3840.94428842 2917.88179874 3840.94084787 C2916.64316774 3840.94077342 2915.40453673 3840.94069896 2914.12837145 3840.94062225 C2909.11377273 3840.94032042 2904.09917401 3840.94001773 2899.08457529 3840.93971432 C2885.23277155 3840.93887748 2871.38096781 3840.93807156 2857.52916408 3840.93730474 C2856.2785675 3840.93723486 2855.02797093 3840.93716498 2853.73947749 3840.93709299 C2795.80391689 3840.93388797 2737.86835721 3840.9370301 2679.93279676 3840.94149253 C2673.61379554 3840.94197637 2667.29479431 3840.94244638 2660.97579308 3840.94291666 C2650.83356954 3840.9436726 2640.691346 3840.94443084 2630.54912246 3840.94519358 C2629.29145631 3840.94528813 2628.03379016 3840.94538268 2626.73801291 3840.9454801 C2620.37820636 3840.94595881 2614.0183998 3840.94644025 2607.65859324 3840.94692621 C2548.30453055 3840.95146071 2488.95046784 3840.95495906 2429.59640503 3840.95742941 C2428.30315313 3840.95748352 2427.00990122 3840.95753762 2425.67745987 3840.95759337 C2341.91321226 3840.96107618 2258.14896547 3840.95971934 2174.38471794 3840.9550395 C2171.68251894 3840.95488961 2168.98031993 3840.95473981 2166.27812093 3840.95459009 C2136.44602289 3840.95293349 2106.61392485 3840.95118184 2076.78182682 3840.94939708 C2075.4352329 3840.94931658 2074.08863898 3840.94923608 2072.70123918 3840.94915313 C2068.61894998 3840.94890908 2064.53666078 3840.94866488 2060.45437158 3840.94842062 C2058.4328424 3840.94829968 2058.4328424 3840.94829968 2056.37047425 3840.94817629 C2049.56090871 3840.9477686 2042.75134317 3840.94735951 2035.94177763 3840.94694794 C1900.47655227 3840.93876858 1765.01133145 3840.9368978 1523.09418045 3840.96738925 C1478.312471 3840.97352846 1433.53076155 3840.97961086 1388.74905205 3840.98535872 C1386.74369929 3840.98561674 1386.74369929 3840.98561674 1384.69783435 3840.98587997 C1300.9805274 3840.99663874 1217.26322134 3841.00252564 1133.5459137 3841.00291586 C1131.60664685 3841.00292563 1131.60664685 3841.00292563 1129.62820289 3841.0029356 C1071.57813321 3841.0032171 1013.52806361 3841.00222604 955.47799398 3841.00004554 C935.17492417 3840.99928605 914.87185435 3840.99861208 894.56878454 3840.99796539 C889.51773534 3840.99780415 884.46668614 3840.99763605 879.41563694 3840.99746237 C821.47900765 3840.99548739 763.54238042 3840.99630389 705.60575175 3841.00576711 C703.73122044 3841.00607253 703.73122044 3841.00607253 701.8188198 3841.00638412 C681.71573422 3841.00967173 661.61264868 3841.01316589 641.50956313 3841.01666536 C584.44916741 3841.02658325 527.38877485 3841.03424124 470.32837832 3841.02749884 C469.17084763 3841.02736275 468.01331695 3841.02722666 466.82070958 3841.02708645 C441.56862039 3841.02407295 416.31653151 3841.01991811 391.0644427 3841.01464213 C380.99361267 3841.01255399 370.92278262 3841.01060917 360.85195255 3841.00870752 C359.75339074 3841.00849604 358.65482892 3841.00828456 357.52297736 3841.00806666 C322.66829475 3841.00142393 287.81362864 3841.00705177 252.95894811 3841.01975888 C218.64302035 3841.03221645 184.32711698 3841.03253199 150.0111906 3841.01513522 C145.31165817 3841.01275429 140.61212569 3841.01051254 135.91259316 3841.00835408 C134.9925642 3841.00792608 134.07253524 3841.00749809 133.12462662 3841.00705713 C118.61704204 3841.00067165 104.10949639 3841.00762165 89.60191722 3841.02027739 C75.4083741 3841.0323858 61.2148924 3841.03030257 47.02135398 3841.0130099 C38.74306661 3841.00334731 30.46495572 3841.00447053 22.1866802 3841.02197222 C16.04897939 3841.03372362 9.91147464 3841.02452329 3.77379045 3841.00731052 C1.31729433 3841.00361772 -1.13922353 3841.00655477 -3.59569973 3841.01711465 C-41.95428796 3841.17071014 -73.48971734 3829.96692608 -101.63403034 3803.50139666 C-102.22442097 3802.97545916 -102.81481159 3802.44952166 -103.42309284 3801.90764666 C-117.19500247 3789.11478273 -127.06557629 3770.94153601 -133.07153034 3753.31389666 C-133.40567951 3752.33779436 -133.40567951 3752.33779436 -133.74657917 3751.34197283 C-138.76895328 3735.41940181 -139.06285759 3719.89997547 -139.0112285 3703.35774827 C-139.0143317 3700.80388829 -139.01874912 3698.25002964 -139.0243533 3695.69617393 C-139.03443292 3690.1367116 -139.03345379 3684.5773377 -139.02514406 3679.01787371 C-139.01273153 3670.67106026 -139.01782529 3662.3243177 -139.02617316 3653.97750243 C-139.03996055 3639.68504172 -139.0395154 3625.39261286 -139.03139501 3611.10014924 C-139.02318189 3596.53931381 -139.02157723 3581.97849939 -139.02787615 3567.41766277 C-139.02827152 3566.4941166 -139.02866689 3565.57057043 -139.02907425 3564.61903802 C-139.03112181 3559.90344434 -139.03327313 3555.18785071 -139.035459 3550.47225709 C-139.05119335 3516.03188815 -139.05208088 3481.59153097 -139.04547977 3447.15115976 C-139.03883181 3412.23954453 -139.03869624 3377.32793827 -139.04652691 3342.41632318 C-139.04677067 3341.31557822 -139.04701444 3340.21483325 -139.04726559 3339.08073238 C-139.04949996 3328.99320133 -139.05179946 3318.90567029 -139.05417743 3308.81813928 C-139.06013144 3283.52155271 -139.06502271 3258.22496598 -139.06919014 3232.92837906 C-139.0693815 3231.76914012 -139.06957285 3230.60990119 -139.06977 3229.4155338 C-139.07910177 3172.25627561 -139.07692202 3115.0970185 -139.07348156 3057.93775988 C-139.07340711 3056.69869436 -139.07333265 3055.45962885 -139.07325594 3054.18301589 C-139.07295411 3049.16665936 -139.07265141 3044.15030283 -139.07234801 3039.1339463 C-139.07151117 3025.27731617 -139.07070525 3011.42068605 -139.06993842 2997.56405592 C-139.06983361 2995.68751084 -139.06983361 2995.68751084 -139.06972667 2993.77305575 C-139.06652176 2935.81937627 -139.06966369 2877.86569771 -139.07412621 2819.91201837 C-139.07461005 2813.5911809 -139.07508006 2807.27034343 -139.07555034 2800.94950596 C-139.07630628 2790.80434204 -139.07706452 2780.65917812 -139.07782726 2770.51401421 C-139.07792182 2769.25598423 -139.07801637 2767.99795426 -139.07811378 2766.70180217 C-139.07859249 2760.34015936 -139.07907393 2753.97851655 -139.07955989 2747.61687374 C-139.08409442 2688.24542066 -139.08759275 2628.87396756 -139.0900631 2569.50251436 C-139.0901172 2568.20887767 -139.09017131 2566.91524098 -139.09022706 2565.58240318 C-139.09370992 2481.79197679 -139.09235296 2398.00155121 -139.08767319 2314.2111249 C-139.0875233 2311.50804318 -139.08737349 2308.80496146 -139.08722378 2306.10187974 C-139.08556718 2276.2599905 -139.08381552 2246.41810126 -139.08203077 2216.57621202 C-139.08195026 2215.2291745 -139.08186976 2213.88213699 -139.08178682 2212.49428015 C-139.08154276 2208.41064582 -139.08129857 2204.32701148 -139.08105431 2200.24337715 C-139.08097368 2198.89524687 -139.08089305 2197.5471166 -139.08080997 2196.15813389 C-139.08040229 2189.34632416 -139.07999319 2182.53451443 -139.07958162 2175.72270469 C-139.07140235 2040.21418018 -139.06953123 1904.70566019 -139.10002294 1662.71301653 C-139.10616215 1617.91782525 -139.11224454 1573.12263397 -139.1179924 1528.32744265 C-139.11816442 1526.99013933 -139.11833643 1525.65283602 -139.11851366 1524.27500836 C-139.12927243 1440.53248934 -139.13515932 1356.78997122 -139.13554955 1273.0474515 C-139.13555606 1271.75421535 -139.13556258 1270.46097921 -139.13556929 1269.12855409 C-139.13585078 1211.06085272 -139.13485972 1152.99315143 -139.13267923 1094.92545011 C-139.13191973 1074.61618404 -139.13124576 1054.30691798 -139.13059907 1033.99765191 C-139.13043784 1028.94505675 -139.13026973 1023.89246159 -139.13009606 1018.83986643 C-139.12812107 960.88525653 -139.12893762 902.93064869 -139.13840079 844.97603941 C-139.13860441 843.72595764 -139.13880802 842.47587587 -139.13901781 841.18791284 C-139.14230542 821.07846217 -139.14579958 800.96901153 -139.14929905 780.85956089 C-139.15921696 723.78094208 -139.16687492 666.70232644 -139.16013253 609.62370682 C-139.15999644 608.46580492 -139.15986035 607.30790302 -139.15972014 606.11491319 C-139.15670664 580.85470886 -139.15255179 555.59450485 -139.14727581 530.33430089 C-139.14518767 520.26022541 -139.14324286 510.1861499 -139.14134121 500.11207438 C-139.14112973 499.01315825 -139.14091824 497.91424213 -139.14070035 496.78202553 C-139.13405761 461.91606818 -139.13968546 427.05012732 -139.15239257 392.18417205 C-139.16485014 357.85712024 -139.16516568 323.53009282 -139.1477689 289.20304238 C-139.14538797 284.50198672 -139.14314623 279.80093101 -139.14098776 275.09987524 C-139.14055977 274.17954795 -139.14013178 273.25922066 -139.13969081 272.31100466 C-139.13330533 257.79869196 -139.14025535 243.28641815 -139.15291108 228.77411085 C-139.16501947 214.57594433 -139.16293629 200.37783922 -139.14564358 186.1796774 C-139.13598097 177.89868312 -139.13710426 169.61786526 -139.15460591 161.33688282 C-139.16635726 155.19718527 -139.15715703 149.05768374 -139.13994421 142.91800281 C-139.13625139 140.46069865 -139.13918851 138.00337278 -139.14974834 135.54608853 C-139.30330413 97.18462802 -128.1018646 65.6481607 -101.63403034 37.50139666 C-101.10809284 36.91100603 -100.58215534 36.32061541 -100.04028034 35.71233416 C-74.10804229 7.79548605 -36.3959218 -0.15463633 0 0 Z M169.93188763 320.26384783 C150.70982486 342.75086953 138.15450231 371.57122334 138.23988049 401.40541997 C138.23839773 402.28510771 138.23691498 403.16479545 138.23538729 404.0711404 C138.23162651 407.02957278 138.23500116 409.98795392 138.23831916 412.94638622 C138.23707657 415.09689618 138.23539596 417.24740592 138.2333168 419.39791524 C138.22884991 425.34645006 138.23065152 431.2949694 138.23341858 437.24350465 C138.2353352 443.72444941 138.23146265 450.2053911 138.22832179 456.68633503 C138.223422 468.1018859 138.2225933 479.51743292 138.22405013 490.93298464 C138.22560309 503.25082488 138.22497264 515.56866216 138.22170892 527.8865021 C138.22150363 528.66675673 138.22129833 529.44701137 138.22108681 530.25091008 C138.22002932 534.23461936 138.21893783 538.21832863 138.21783536 542.2020379 C138.20985497 571.32345987 138.20686481 600.44488076 138.20638943 629.56630373 C138.20589517 659.09252784 138.20325259 688.61875058 138.19798183 718.14497423 C138.19764829 720.02625896 138.19731483 721.9075437 138.19698143 723.78882843 C138.19563334 731.37396683 138.19427005 738.95910522 138.19288932 746.54424362 C138.17771778 830.00896008 138.17094574 913.4736762 138.16646736 996.93839383 C138.16641067 997.99430291 138.16635398 999.050212 138.16629557 1000.13811833 C138.16600905 1005.47908776 138.16572402 1010.8200572 138.16544145 1016.16102664 C138.16306687 1060.89800479 138.15935731 1105.63498278 138.15540436 1150.37196082 C138.1535118 1171.79241768 138.1516833 1193.21287455 138.14987016 1214.63333142 C138.14977997 1215.69864613 138.14968978 1216.76396083 138.14959686 1217.86155781 C138.14526053 1269.13479235 138.14133222 1320.40802693 138.13786983 1371.68126154 C138.13779596 1372.7750294 138.13772209 1373.86879726 138.13764598 1374.9957096 C138.13295066 1444.70607924 138.13012785 1514.41644884 138.12848306 1584.12681861 C138.12834748 1589.84266753 138.12820845 1595.55851646 138.12806951 1601.27436538 C138.12784704 1610.43833464 138.12762567 1619.6023039 138.12740564 1628.76627316 C138.12737836 1629.90185127 138.12735109 1631.03742937 138.127323 1632.20741894 C138.12726788 1634.50251769 138.12721277 1636.79761643 138.12715767 1639.09271518 C138.12677105 1655.19232065 138.1263831 1671.29192612 138.12598853 1687.39153159 C138.12584743 1693.15232437 138.12570735 1698.91311715 138.12556964 1704.67390993 C138.12296529 1813.48147795 138.11763433 1922.28904453 138.10168743 2031.0966115 C138.10151964 2032.24211151 138.10135184 2033.38761152 138.10117897 2034.56782366 C138.09592826 2070.35834412 138.09035391 2106.14886453 138.08471966 2141.93938494 C138.07893875 2178.66261782 138.07320823 2215.38585072 138.06776333 2252.10908365 C138.06759552 2253.23979151 138.06742771 2254.37049937 138.06725482 2255.5354711 C138.05676295 2326.3415141 138.0499004 2397.1475567 138.04689693 2467.95360041 C138.04685012 2469.04707535 138.04680331 2470.1405503 138.04675508 2471.26716085 C138.04470449 2519.28850775 138.04346035 2567.30985465 138.04310902 2615.3312016 C138.04296576 2634.64997859 138.04272709 2653.96875557 138.04244497 2673.28753255 C138.04239944 2676.49071928 138.04235778 2679.69390601 138.04231686 2682.89709274 C138.04167063 2731.90236743 138.03871039 2780.90764049 138.02885628 2829.91291428 C138.02864391 2830.96999499 138.02843154 2832.0270757 138.02821273 2833.11618917 C138.02478387 2850.12107193 138.02117093 2867.12595465 138.01753632 2884.13083738 C138.00722467 2932.39865442 137.99844102 2980.66646946 138.00038099 3028.93428779 C138.00041973 3029.91346954 138.00045847 3030.8926513 138.00049838 3031.90150523 C138.0013749 3053.26298704 138.0030869 3074.62446869 138.00561801 3095.98595037 C138.00661478 3104.50523639 138.00750142 3113.02452242 138.00835323 3121.54380846 C138.00844912 3122.47312425 138.00854501 3123.40244003 138.0086438 3124.3599169 C138.01163374 3153.84473888 138.00539726 3183.32954923 137.99383437 3212.81436883 C137.98248847 3241.84378021 137.98023217 3270.87317603 137.99123987 3299.90258805 C137.99274603 3303.87820183 137.99414732 3307.85381563 137.99548569 3311.82942946 C137.99575174 3312.60773708 137.99601778 3313.3860447 137.99629189 3314.1879374 C138.00021365 3326.46058619 137.99412327 3338.73320834 137.98374584 3351.00585251 C137.9737974 3363.01303446 137.97449364 3375.02017632 137.98659679 3387.02735673 C137.99259981 3393.41972136 137.99389892 3399.81198979 137.98191193 3406.20434817 C137.97111729 3412.00737195 137.9741964 3417.81021888 137.9882046 3423.6132343 C137.99082287 3425.69127401 137.98846756 3427.76932782 137.98039135 3429.84735348 C137.84611305 3466.88759273 149.55259849 3499.4615909 175.83081341 3525.98967791 C176.66741497 3526.81854509 177.50401653 3527.64741228 178.36596966 3528.50139666 C179.13553997 3529.26838884 179.90511028 3530.03538103 180.69800091 3530.82561541 C206.93950722 3555.82736552 240.89669132 3564.01063028 276.16316795 3563.87744415 C278.32635234 3563.88042409 280.48953523 3563.88471808 282.65271474 3563.89019248 C288.58518737 3563.90141887 294.51751158 3563.89406832 300.44998021 3563.88362263 C306.2617798 3563.87638477 312.07355209 3563.88341923 317.88534998 3563.88995448 C329.95747353 3563.90302434 342.0295585 3563.90191081 354.10168421 3563.89308254 C366.3961436 3563.88415205 378.69057843 3563.88185722 390.98504007 3563.88745518 C391.76554265 3563.88780645 392.54604524 3563.88815772 393.35019941 3563.88851963 C397.3355852 3563.89034224 401.32097093 3563.89226893 405.30635665 3563.89423047 C434.39555149 3563.90831895 463.4847316 3563.90759876 492.57392788 3563.89938784 C522.05683362 3563.89111061 551.53972909 3563.88936612 581.02263546 3563.89559984 C581.95256805 3563.89579338 582.88250065 3563.89598693 583.84061302 3563.89618633 C592.36289479 3563.89796095 600.88517656 3563.89980266 609.4074583 3563.90172497 C630.77787034 3563.90653751 652.14828251 3563.91030547 673.51869488 3563.91336608 C674.49796262 3563.91350678 675.47723036 3563.91364749 676.48617289 3563.91379246 C724.75987736 3563.92062899 773.03358 3563.91602022 821.30728436 3563.91028261 C823.42196168 3563.9100317 825.536639 3563.90978081 827.65131632 3563.90952993 C829.22337753 3563.90934337 829.22337753 3563.90934337 830.82719755 3563.90915305 C844.64804522 3563.90751351 858.46889288 3563.90590368 872.28974056 3563.90437317 C873.87440848 3563.90419694 873.87440848 3563.90419694 875.4910899 3563.90401716 C924.43974213 3563.8986143 973.38839344 3563.89989858 1022.3370458 3563.90266454 C1027.67638369 3563.90296393 1033.01572158 3563.90325042 1038.35505947 3563.90353836 C1054.4483248 3563.90441013 1070.54159012 3563.90530095 1086.63485545 3563.90623116 C1135.71050494 3563.9090648 1184.78615444 3563.91086549 1233.86180401 3563.91177607 C1235.50089163 3563.91180697 1235.50089163 3563.91180697 1237.17309213 3563.91183851 C1307.94478763 3563.91315481 1378.71648211 3563.90985202 1449.4881773 3563.90322733 C1450.61805506 3563.90312197 1451.74793282 3563.90301662 1452.9120493 3563.90290807 C1490.75784958 3563.89937898 1528.60364984 3563.8956108 1566.4494501 3563.89181818 C1680.89765904 3563.88035683 1795.34586429 3563.87407596 1999.73509648 3563.89216417 C2037.57131831 3563.89595378 2075.40754015 3563.89969931 2113.24376202 3563.90322733 C2114.93810097 3563.90338593 2114.93810097 3563.90338593 2116.66666899 3563.90354774 C2187.4011579 3563.91016329 2258.13564609 3563.91310989 2328.87013531 3563.91177607 C2329.96249845 3563.9117558 2331.0548616 3563.91173553 2332.18032666 3563.91171465 C2381.22869041 3563.9107945 2430.27705408 3563.90887962 2479.32541776 3563.90604456 C2495.41160201 3563.9051159 2511.49778627 3563.9042329 2527.58397052 3563.90336541 C2532.92022931 3563.90307743 2538.2564881 3563.90278537 2543.59274689 3563.90248384 C2592.54256464 3563.89972626 2641.49238116 3563.89892966 2690.44219875 3563.90437317 C2691.49797477 3563.90449008 2692.55375079 3563.904607 2693.64152003 3563.90472746 C2707.45455436 3563.90626285 2721.26758868 3563.90789078 2735.080623 3563.90952993 C2736.65144502 3563.90971629 2736.65144502 3563.90971629 2738.25400082 3563.90990641 C2740.36675943 3563.91015709 2742.47951803 3563.91040799 2744.59227664 3563.9106591 C2792.79926661 3563.91637385 2841.0062544 3563.9202926 2889.21324444 3563.91336608 C2890.19122383 3563.91322602 2891.16920322 3563.91308595 2892.17681836 3563.91294165 C2913.51215161 3563.90985132 2934.84748461 3563.90589268 2956.18281754 3563.90108023 C2964.6916463 3563.89917253 2973.20047507 3563.89737074 2981.70930386 3563.89559984 C2982.63747464 3563.89540359 2983.56564543 3563.89520735 2984.52194261 3563.89500515 C3013.96753518 3563.88882846 3043.41311714 3563.89183863 3072.85870892 3563.90015015 C3101.85049686 3563.90829286 3130.84226816 3563.90731435 3159.83405425 3563.89304506 C3163.80500254 3563.89109165 3167.77595088 3563.88924233 3171.74689925 3563.88745518 C3172.91298328 3563.88692423 3172.91298328 3563.88692423 3174.10262456 3563.88638256 C3186.35787422 3563.88107438 3198.61309842 3563.88575707 3210.86834509 3563.89471924 C3222.86012798 3563.90328328 3234.85186954 3563.90119335 3246.84364836 3563.88770883 C3253.22707696 3563.88096998 3259.61040996 3563.87891866 3265.99383439 3563.89015838 C3271.78992886 3563.90027604 3277.58584497 3563.89650254 3283.3819282 3563.88183426 C3285.45633782 3563.87897661 3287.53076215 3563.88107717 3289.60515895 3563.88891126 C3305.80417308 3563.94584053 3321.50870495 3562.76396803 3336.92846966 3557.37639666 C3337.79778118 3557.07854265 3338.6670927 3556.78068865 3339.562747 3556.47380877 C3357.14453518 3550.2092735 3371.84566114 3540.2931941 3385.36596966 3527.50139666 C3386.60153606 3526.36250994 3386.60153606 3526.36250994 3387.86206341 3525.20061541 C3402.06977571 3511.65785064 3411.89613595 3494.5382079 3418.24096966 3476.06389666 C3418.51513714 3475.27942156 3418.78930462 3474.49494646 3419.0717802 3473.68669939 C3424.15795708 3457.96076474 3424.80384944 3442.07682578 3424.74201715 3425.70419836 C3424.74499709 3423.54101398 3424.74929108 3421.37783108 3424.75476549 3419.21465157 C3424.76599188 3413.28217895 3424.75864133 3407.34985473 3424.74819564 3401.4173861 C3424.74095778 3395.60558651 3424.74799223 3389.79381422 3424.75452748 3383.98201633 C3424.76759734 3371.90989278 3424.76648381 3359.83780782 3424.75765555 3347.7656821 C3424.74872506 3335.47122271 3424.74643022 3323.17678788 3424.75202818 3310.88232625 C3424.75237945 3310.10182366 3424.75273072 3309.32132108 3424.75309264 3308.5171669 C3424.75491524 3304.53178111 3424.75684193 3300.54639538 3424.75880347 3296.56100966 C3424.77289195 3267.47181482 3424.77217176 3238.38263472 3424.76396084 3209.29343843 C3424.75568361 3179.81053269 3424.75393913 3150.32763722 3424.76017284 3120.84473085 C3424.76036639 3119.91479826 3424.76055993 3118.98486567 3424.76075933 3118.0267533 C3424.76253395 3109.50447152 3424.76437566 3100.98218976 3424.76629797 3092.45990801 C3424.77111052 3071.08949597 3424.77487847 3049.7190838 3424.77793908 3028.34867144 C3424.77807979 3027.36940369 3424.77822049 3026.39013595 3424.77836546 3025.38119343 C3424.78520199 2977.10748895 3424.78059322 2928.83378631 3424.77485561 2880.56008196 C3424.7746047 2878.44540464 3424.77435381 2876.33072732 3424.77410293 2874.21605 C3424.77397856 2873.16800919 3424.77385419 2872.11996838 3424.77372606 2871.04016876 C3424.77208651 2857.2193211 3424.77047668 2843.39847343 3424.76894617 2829.57762575 C3424.76882869 2828.52118047 3424.7687112 2827.46473519 3424.76859016 2826.37627641 C3424.7631873 2777.42762418 3424.76447158 2728.47897288 3424.76723754 2679.53032051 C3424.76753693 2674.19098262 3424.76782343 2668.85164474 3424.76811136 2663.51230685 C3424.76898313 2647.41904152 3424.76987395 2631.32577619 3424.77080416 2615.23251086 C3424.7736378 2566.15686137 3424.77543849 2517.08121187 3424.77634907 2468.00556231 C3424.77636967 2466.91283723 3424.77639028 2465.82011215 3424.77641151 2464.69427419 C3424.77772781 2393.92257868 3424.77442503 2323.15088421 3424.76780033 2252.37918901 C3424.7676423 2250.68437237 3424.7676423 2250.68437237 3424.76748107 2248.95531701 C3424.76395198 2211.10951673 3424.7601838 2173.26371647 3424.75639118 2135.41791622 C3424.74492983 2020.96970728 3424.73864896 1906.52150203 3424.75673718 1702.13226984 C3424.76052678 1664.296048 3424.76427232 1626.45982616 3424.76780033 1588.6236043 C3424.76790607 1587.494045 3424.7680118 1586.36448569 3424.76812074 1585.20069732 C3424.77473629 1514.46620841 3424.77768289 1443.73172022 3424.77634907 1372.99723101 C3424.7763288 1371.90486786 3424.77630853 1370.81250471 3424.77628765 1369.68703965 C3424.7753675 1320.63867591 3424.77345262 1271.59031223 3424.77061756 1222.54194856 C3424.76968891 1206.4557643 3424.7688059 1190.36958005 3424.76793841 1174.28339579 C3424.76765044 1168.947137 3424.76735837 1163.61087821 3424.76705684 1158.27461942 C3424.76429927 1109.32480167 3424.76350266 1060.37498516 3424.76894617 1011.42516756 C3424.76906309 1010.36939154 3424.76918 1009.31361552 3424.76930046 1008.22584629 C3424.77083585 994.41281196 3424.77246378 980.59977764 3424.77410293 966.78674332 C3424.77422717 965.73952864 3424.77435141 964.69231396 3424.77447941 963.6133655 C3424.77473009 961.50060689 3424.77498099 959.38784828 3424.7752321 957.27508967 C3424.78094685 909.0680997 3424.7848656 860.86111192 3424.77793908 812.65412188 C3424.77779902 811.67614248 3424.77765895 810.69816309 3424.77751465 809.69054796 C3424.77442432 788.3552147 3424.77046568 767.0198817 3424.76565323 745.68454877 C3424.76374554 737.17572002 3424.76194374 728.66689124 3424.76017284 720.15806246 C3424.7599766 719.22989167 3424.75978035 718.30172088 3424.75957815 717.3454237 C3424.75340146 687.89983114 3424.75641163 658.45424917 3424.76472316 629.00865739 C3424.77286586 600.01686946 3424.77188735 571.02509815 3424.75761806 542.03331207 C3424.75566466 538.06236377 3424.75381533 534.09141544 3424.75202818 530.12046707 C3424.75167422 529.34307771 3424.75132025 528.56568836 3424.75095556 527.76474175 C3424.74564738 515.50949209 3424.75033007 503.2542679 3424.75929225 490.99902123 C3424.76785629 479.00723833 3424.76576635 467.01549677 3424.75228183 455.02371796 C3424.74554298 448.64028935 3424.74349166 442.25695635 3424.75473138 435.87353192 C3424.76484904 430.07743745 3424.76107554 424.28152135 3424.74640726 418.48543811 C3424.74354961 416.41102849 3424.74565017 414.33660416 3424.75348426 412.26220737 C3424.81019643 396.12496654 3423.65204904 380.43209494 3418.30346966 365.06389666 C3418.00674358 364.19829119 3417.71001751 363.33268572 3417.40429974 362.44084978 C3412.10925437 347.63141703 3404.53098174 334.47203588 3394.36596966 322.50139666 C3393.66471966 321.66092791 3392.96346966 320.82045916 3392.24096966 319.95452166 C3371.37056199 295.66006273 3340.82596285 281.35092003 3309.36596966 277.50139666 C3306.39716078 277.36654275 3303.43343556 277.36680381 3300.46194635 277.37530749 C3299.14241473 277.37308335 3299.14241473 277.37308335 3297.79622591 277.37081429 C3294.83779353 277.36705351 3291.87941239 277.37042815 3288.9209801 277.37374616 C3286.77047013 277.37250357 3284.61996039 277.37082296 3282.46945107 277.3687438 C3276.52091625 277.36427691 3270.57239692 277.36607852 3264.62386166 277.36884558 C3258.1429169 277.37076219 3251.66197521 277.36688965 3245.18103129 277.36374879 C3233.76548041 277.358849 3222.34993339 277.3580203 3210.93438168 277.35947713 C3198.61654144 277.36103009 3186.29870415 277.36039964 3173.98086421 277.35713592 C3173.20060958 277.35693062 3172.42035495 277.35672533 3171.61645623 277.35651381 C3167.63274695 277.35545632 3163.64903768 277.35436482 3159.66532842 277.35326236 C3130.54390644 277.34528197 3101.42248556 277.34229181 3072.30106258 277.34181643 C3042.77483848 277.34132217 3013.24861574 277.33867959 2983.72239208 277.33340883 C2981.84110735 277.33307529 2979.95982262 277.33274182 2978.07853789 277.33240843 C2970.49339949 277.33106034 2962.90826109 277.32969705 2955.3231227 277.32831632 C2871.85840623 277.31314477 2788.39369011 277.30637274 2704.92897248 277.30189436 C2703.8730634 277.30183767 2702.81715432 277.30178098 2701.72924799 277.30172257 C2696.38827855 277.30143605 2691.04730911 277.30115102 2685.70633968 277.30086845 C2640.96936153 277.29849387 2596.23238353 277.29478431 2551.4954055 277.29083136 C2530.07494863 277.2889388 2508.65449177 277.2871103 2487.2340349 277.28529716 C2486.16872019 277.28520697 2485.10340548 277.28511678 2484.00580851 277.28502385 C2432.73257396 277.28068753 2381.45933939 277.27675922 2330.18610477 277.27329683 C2329.09233691 277.27322296 2327.99856905 277.27314909 2326.87165671 277.27307298 C2257.16128707 277.26837766 2187.45091748 277.26555485 2117.7405477 277.26391005 C2112.02469878 277.26377447 2106.30884986 277.26363545 2100.59300094 277.26349651 C2091.42903168 277.26327404 2082.26506242 277.26305267 2073.10109315 277.26283263 C2071.96551505 277.26280536 2070.82993694 277.26277809 2069.65994737 277.26274999 C2067.36484863 277.26269488 2065.06974988 277.26263977 2062.77465114 277.26258466 C2046.67504567 277.26219805 2030.57544019 277.2618101 2014.47583472 277.26141553 C2008.71504194 277.26127442 2002.95424916 277.26113435 1997.19345638 277.26099664 C1888.38588837 277.25839229 1779.57832178 277.25306133 1670.77075481 277.23711443 C1669.6252548 277.23694664 1668.47975479 277.23677884 1667.29954266 277.23660597 C1631.50902219 277.23135526 1595.71850178 277.22578091 1559.92798138 277.22014666 C1523.20474849 277.21436575 1486.4815156 277.20863523 1449.75828266 277.20319033 C1448.6275748 277.20302252 1447.49686695 277.20285471 1446.33189521 277.20268182 C1375.52585222 277.19218995 1304.71980962 277.1853274 1233.91376591 277.18232393 C1232.82029096 277.18227712 1231.72681602 277.18223031 1230.60020547 277.18218208 C1182.57885856 277.18013149 1134.55751166 277.17888735 1086.53616471 277.17853602 C1067.21738773 277.17839275 1047.89861074 277.17815409 1028.57983376 277.17787197 C1025.37664703 277.17782643 1022.1734603 277.17778478 1018.97027357 277.17774385 C969.96499888 277.17709763 920.95972583 277.17413739 871.95445204 277.16428328 C870.89737132 277.1640709 869.84029061 277.16385853 868.75117715 277.16363973 C851.74629438 277.16021087 834.74141166 277.15659792 817.73652894 277.15296332 C769.4687119 277.14265166 721.20089686 277.13386802 672.93307853 277.13580799 C671.95389677 277.13584673 670.97471502 277.13588547 669.96586109 277.13592538 C648.60437928 277.1368019 627.24289762 277.13851389 605.88141595 277.14104501 C597.36212992 277.14204178 588.84284389 277.14292842 580.32355785 277.14378023 C579.39424207 277.14387612 578.46492628 277.14397201 577.50744941 277.1440708 C548.02262744 277.14706074 518.53781708 277.14082426 489.05299749 277.12926136 C460.0235861 277.11791547 430.99419029 277.11565917 401.96477826 277.12666687 C397.98916449 277.12817303 394.01355068 277.12957432 390.03793685 277.13091269 C388.87047542 277.13131176 388.87047542 277.13131176 387.67942891 277.13171889 C375.40678012 277.13564065 363.13415797 277.12955026 350.8615138 277.11917284 C338.85433185 277.1092244 326.84719 277.10992064 314.84000959 277.12202379 C308.44764495 277.12802681 302.05537652 277.12932592 295.66301814 277.11733893 C289.85999436 277.10654428 284.05714743 277.1096234 278.25413202 277.1236316 C276.17609231 277.12624986 274.0980385 277.12389455 272.02001283 277.11581834 C233.03801728 276.97450079 196.29070364 290.64298129 169.93188763 320.26384783 Z " fill="#7F7E7E" transform="translate(138.63403034210205,-0.501396656036377)"/>
</svg>
